<svg xmlns="http://www.w3.org/2000/svg" viewBox="0 0 477.98 221.46"><defs><style>.cls-1{fill:#231f20;}</style></defs><title>Asset 1</title><g id="Layer_2" data-name="Layer 2"><g id="Layer_1-2" data-name="Layer 1"><path class="cls-1" d="M477,181.88a25.88,25.88,0,0,0-7.31-11.55c-6.53-6-15.12-9.07-23.33-12.38s-16.62-7.29-21.93-14.38c-3.17-4.22-5.78-9.88-11-10.78-3.72-.65-7.28,1.51-10.44,3.58l-34.27,22.46A61.23,61.23,0,0,0,363.12,121a20.39,20.39,0,0,0,8.33-18.48c-.24-2.3-1.14-4.85-3.29-5.71-2.73-1.1-5.54,1.1-8.05,2.65-10.89,6.74-24.85,1.86-37.64,1.21-12.33-.63-24.44,2.9-36.44,5.8-38.87,9.41-78.8,14.6-118.46,9.44-6.43-.84-13.65-2-21-3.49-11.78-2.56-24.89-6.57-35.53-12.49a6.78,6.78,0,0,1-3.82-6.77,7.06,7.06,0,0,1,4-5.92c2.73-1.2,21.55-4.59,27.26-5.92,13-3,26-6.17,38.92-9.56,5.15-1.35,10.3-2.74,15.4-4.28,2.78-.84,8.72-3.18,8.85-3.28s14.34-6,24-18.9c2.31-3.08,9.89-14.43,5.92-17.77,0,0-5.08-6.2-41.46,9.88,4.19-3.69,7.09-9.11,9.81-13.9q3.4-6,6.4-12.2c1.21-2.52,2.92-5.6,2.16-8.53-1.33-5.13-8.78-1.95-11.8-.6-5.14,2.31-19.37,9.72-21.52,10.69C127.51,34.34,97.61,70.16,95.51,72.14c-3.34,3.14-6.73,6.57-10.64,9.13-3.08,2-6.58,3.29-9.83,5-6.61,3.49-13,7.37-19.31,11.37-4.38,2.79-9.8,5.56-13.36,9.42-4.23,4.59-5.68,9.32-6.89,17.34-.83,5.54-3,9.91-5.8,14.66-1.91,3.25-4.26,8-4.26,11.86,0,6.37,8.65,7.09,13.28,8.32a46.25,46.25,0,0,0,11.72,1.93c6.93,0,14-3.7,20-6.68a95.73,95.73,0,0,0,11.35-6.77c2-1.36,4.75-2.27,7.06-1.06a9.35,9.35,0,0,1,3,3.14,21.11,21.11,0,0,1,2.2,3.94,17.64,17.64,0,0,1,1,11c0,.23-.12.46-.19.68l-4.71,13.41c-.79,2.24-1.62,4.56-3.26,6.28-2.31,2.42-5.78,3.24-9.05,4L4.71,205c-1.55.34-3.26.77-4.15,2.09-1.43,2.11.13,5,1.91,6.77a26.24,26.24,0,0,0,28.06,5.71c3.09-1.28,5.9-3.15,8.95-4.52,20-9,44.13,5.74,65-1.11,14.56-4.78,25.43-19.5,40.74-20.16,9.78-.42,18.7,5.15,28.12,7.82,8.27,2.35,17,2.45,25.59,2A213.1,213.1,0,0,0,263,190.28c5-1.89,10.24-4,15.58-3.42,4.52.51,8.57,2.91,12.54,5.12,12.4,6.89,26.59,12.51,40.49,9.71,9.15-1.83,17.17-7.14,24.93-12.33l17.5-11.7c2.88.89,7.16,3,13.22,7.67,7.35,6.37,14.81,12.46,21.63,19.43,4.47,4.58,11.83,11.36,18.84,10.18a67.21,67.21,0,0,0,9.14-2.21c2.92-.92,6.62-1.76,8.61-4.28a3.29,3.29,0,0,0,.8-2c0-1.59-1.63-2.63-3-3.38-2.35-1.25-3.46-3-5.78-4.34a34.84,34.84,0,0,0-7.16-2.4c-3.57-1-7-.73-9.95-3.81-2.53-2.67-3.56-5.55-5.78-8.56-3.14-4.26-6.2-8.89-9.83-12.76-3.19-3.4-6.46-5.19-11.09-5.19l-2.07,0,8.61-5.76c2.7-1.8,5.49-3.65,8.69-4.22,8.8-1.59,16,6.57,21.54,13.56,5.9,7.4,12.74,14.37,20.9,19.28A39.6,39.6,0,0,0,464,193.88a30,30,0,0,0,6.68.57c1.48,0,4.23.12,5.52-.75C479.1,191.72,477.77,184.6,477,181.88ZM57.31,129.27c-2.74,1.58-6,1.14-7.18-1s0-5.12,2.74-6.7,6-1.14,7.17,1S60,127.69,57.31,129.27Z"/></g></g></svg>